<svg xmlns="http://www.w3.org/2000/svg" width="24" height="24" viewBox="0 0 24 24" fill="none" stroke="#4338ca" stroke-width="2" stroke-linecap="round" stroke-linejoin="round" class="lucide lucide-building-2">
  <path d="M6 22V2a1 1 0 0 1 1-1h9a1 1 0 0 1 1 1v20"/>
  <path d="M18 11h.01"/>
  <path d="M6 11h.01"/>
  <path d="M13 2v6.5a.5.5 0 0 1-.5.5h-4a.5.5 0 0 1-.5-.5V2"/>
  <path d="M6 14h.01"/>
  <path d="M18 14h.01"/>
  <path d="M18 17h.01"/>
  <path d="M6 17h.01"/>
  <path d="M2 22h20"/>
  <path d="M6 19a2 2 0 0 1 2-2h8a2 2 0 0 1 2 2v3H6z"/>
</svg>